<?xml version="1.0" encoding="utf-8"?>
<svg viewBox="186.4299 201.82 127.1402 96.36" xmlns="http://www.w3.org/2000/svg">
  <g id="Branding" stroke="none" stroke-width="1" fill="none" fill-rule="evenodd" transform="matrix(1, 0, 0, 1, -64.50286865234375, 155.1840057373047)">
    <g id="logo_brave_alt" transform="translate(-45.000000, -40.000000)">
      <g id="Logo/Logotypes/brave/logo-light" transform="translate(46.000000, 42.000000)">
        <g id="Group-5" transform="translate(-3.910345, 0.000000)">
          <path fill="#f0f0f0" d="M 361.543 52.706 C 353.19 48.882 344.371 46.169 335.313 44.636 C 334.073 46.852 332.952 49.132 331.953 51.466 C 322.304 50.012 312.492 50.012 302.843 51.466 C 301.843 49.132 300.722 46.852 299.483 44.636 C 290.419 46.182 281.594 48.901 273.233 52.726 C 256.633 77.286 252.133 101.236 254.383 124.846 C 264.104 132.029 274.985 137.491 286.553 140.996 C 289.158 137.493 291.462 133.777 293.443 129.886 C 289.681 128.481 286.05 126.748 282.593 124.706 C 283.503 124.046 284.393 123.366 285.253 122.706 C 305.623 132.286 329.203 132.286 349.573 122.706 C 350.443 123.416 351.333 124.096 352.233 124.706 C 348.768 126.751 345.131 128.488 341.363 129.896 C 343.341 133.785 345.646 137.498 348.253 140.996 C 359.83 137.505 370.72 132.045 380.443 124.856 C 383.083 97.476 375.933 73.746 361.543 52.706 Z M 296.293 110.326 C 290.023 110.326 284.843 104.636 284.843 97.636 C 284.843 90.636 289.843 84.896 296.273 84.896 C 302.703 84.896 307.843 90.636 307.733 97.636 C 307.623 104.636 302.683 110.326 296.293 110.326 Z M 338.533 110.326 C 332.253 110.326 327.093 104.636 327.093 97.636 C 327.093 90.636 332.093 84.896 338.533 84.896 C 344.973 84.896 350.073 90.636 349.963 97.636 C 349.853 104.636 344.923 110.326 338.533 110.326 Z"/>
        </g>
      </g>
    </g>
  </g>
</svg>