<?xml version="1.0" encoding="utf-8"?>
<svg viewBox="159.95 29.5 180.1 441" xmlns="http://www.w3.org/2000/svg">
  <path style="fill: #f0f0f0;" d="M 4235.808 2205 C 4235.808 992 4238.808 0 4242.808 0 C 4248.808 0 5063.808 151 5163.808 171 L 5215.808 181 L 5215.808 991 L 5215.808 1800 L 5525.808 1800 L 5835.808 1800 L 5835.808 1948 C 5835.808 2029 5838.808 2240 5842.808 2418 L 5848.808 2740 L 5532.808 2740 L 5215.808 2740 L 5215.808 3095 L 5215.808 3450 L 5580.808 3450 C 5781.808 3450 5945.808 3452 5945.808 3455 C 5945.808 3466 6025.808 4320 6030.808 4363 L 6036.808 4410 L 5135.808 4410 L 4235.808 4410 L 4235.808 2205 Z" transform="matrix(0.10000000149011612, 0, 0, -0.10000000149011612, -263.63082885742233, 470.5000305175779)"/>
</svg>