<svg width="168" height="86" viewBox="0 0 168 86" fill="none" xmlns="http://www.w3.org/2000/svg">
<path d="M20.5 85.5C20.1667 85.1667 20 84.5 20 83.5C20 81.75 20.125 80.875 20.375 80.875C21.0417 80.875 22 80.7083 23.25 80.375C24.5 80.0417 25.6667 79.625 26.75 79.125C27.8333 78.625 28.4583 78.1667 28.625 77.75C28.9583 76.5833 29.1667 75.2083 29.25 73.625C29.4167 72.0417 29.5 70.2083 29.5 68.125V22.875C29.5 16.375 29.1667 12.5417 28.5 11.375L27.875 10.25C27.5417 9.91667 26.4583 9.66667 24.625 9.5C22.7917 9.25 20.6667 9.125 18.25 9.125C14.8333 9.125 12.0417 10.0833 9.875 12C7.70833 13.8333 6.04167 16.9583 4.875 21.375C4.70833 21.7917 4.29167 22 3.625 22C1.79167 22 0.583333 21.7083 0 21.125L2.375 0.75C4.20833 1.16667 5.83333 1.5 7.25 1.75C8.66667 2 9.91667 2.125 11 2.125C15.25 2.125 19.7917 2.25 24.625 2.5C29.5417 2.75 34.125 2.875 38.375 2.875C42.625 2.875 47.2083 2.75 52.125 2.5C57.0417 2.25 61.625 2.125 65.875 2.125C66.9583 2.125 68.2083 2 69.625 1.75C71.0417 1.5 72.6667 1.16667 74.5 0.75L76.875 21.25C76.2917 21.8333 75.0833 22.125 73.25 22.125C72.5833 22.125 72.1667 21.9167 72 21.5C69.9167 13.25 65.4583 9.125 58.625 9.125C51.9583 9.125 48.4167 9.875 48 11.375C47.6667 12.5417 47.4167 14.0417 47.25 15.875C47.0833 17.7083 47 19.9167 47 22.5V67.625C47 69.7083 47.0833 71.5833 47.25 73.25C47.4167 74.9167 47.6667 76.4167 48 77.75C48.1667 78.0833 48.75 78.5 49.75 79C50.8333 79.5 51.9583 79.9583 53.125 80.375C54.375 80.7083 55.25 80.875 55.75 80.875C56.0833 80.875 56.25 81.6667 56.25 83.25C56.25 84.0833 56.1667 84.8333 56 85.5C55.6667 85.5 54.875 85.4583 53.625 85.375C52.375 85.2917 50.6667 85.1667 48.5 85C46.3333 84.8333 44.4167 84.7083 42.75 84.625C41.0833 84.5417 39.7083 84.5 38.625 84.5C37.125 84.5 35.0833 84.5833 32.5 84.75C29.9167 84.9167 27.4583 85.0417 25.125 85.125C22.875 85.2917 21.3333 85.4167 20.5 85.5ZM83.875 85.5C83.5417 85.1667 83.375 84.4583 83.375 83.375C83.375 81.7083 83.4583 80.875 83.625 80.875C84.2917 80.875 85.25 80.75 86.5 80.5C87.8333 80.1667 89.0417 79.75 90.125 79.25C91.2083 78.75 91.8333 78.2917 92 77.875C92.5833 75.7917 92.875 72.4167 92.875 67.75V20C92.875 14.75 92.5833 11.5 92 10.25C91.75 9.58333 91.0833 9 90 8.5C89 8 87.9167 7.625 86.75 7.375C85.6667 7.04167 84.7917 6.875 84.125 6.875C83.7917 6.875 83.625 6.04167 83.625 4.375C83.625 3.125 83.7083 2.41667 83.875 2.25L101.25 3C102.333 3.08333 104.375 3.04167 107.375 2.875C110.458 2.70833 114.5 2.5 119.5 2.25C119.75 2.58333 119.875 3.45833 119.875 4.875C119.875 6.20833 119.708 6.875 119.375 6.875C118.875 6.875 118 7.04167 116.75 7.375C115.583 7.70833 114.417 8.125 113.25 8.625C112.167 9.04167 111.542 9.45833 111.375 9.875C110.708 11.7083 110.375 15.25 110.375 20.5V38.25L110.625 38.625L125.625 38.875C126.792 38.875 128.583 38.875 131 38.875C133.417 38.7917 136.5 38.7083 140.25 38.625C140.417 38.4583 140.5 38.2917 140.5 38.125V20C140.5 15.5 140.208 12.2083 139.625 10.125C139.458 9.625 138.833 9.125 137.75 8.625C136.75 8.125 135.667 7.70833 134.5 7.375C133.333 7.04167 132.417 6.875 131.75 6.875C131.583 6.875 131.417 6.54167 131.25 5.875C131.167 5.20833 131.167 4.5 131.25 3.75C131.333 2.91667 131.458 2.41667 131.625 2.25L150.25 3C151.5 3 157.125 2.75 167.125 2.25C167.375 3 167.5 3.75 167.5 4.5C167.5 6.08333 167.292 6.875 166.875 6.875C166.375 6.875 165.5 7.04167 164.25 7.375C163.083 7.70833 161.958 8.125 160.875 8.625C159.792 9.04167 159.167 9.45833 159 9.875C158.667 11.125 158.417 12.625 158.25 14.375C158.083 16.125 158 18.1667 158 20.5V67.25C158 69.5 158.083 71.5 158.25 73.25C158.417 75 158.667 76.5417 159 77.875C159.167 78.2083 159.75 78.625 160.75 79.125C161.833 79.5417 162.958 79.9167 164.125 80.25C165.375 80.5833 166.25 80.75 166.75 80.75C167.083 80.75 167.25 81.625 167.25 83.375C167.25 84.0417 167.125 84.75 166.875 85.5C166.542 85.5 165.75 85.4583 164.5 85.375C163.25 85.2917 161.583 85.1667 159.5 85C157.417 84.8333 155.583 84.7083 154 84.625C152.417 84.5417 151.083 84.5 150 84.5C148.917 84.5 147.417 84.5417 145.5 84.625C143.667 84.7083 141.75 84.8333 139.75 85C137.833 85.0833 136.083 85.1667 134.5 85.25C132.917 85.4167 131.875 85.5 131.375 85.5C131.208 85.25 131.083 84.75 131 84C130.917 83.25 130.917 82.5417 131 81.875C131.167 81.2083 131.333 80.875 131.5 80.875C132.167 80.875 133.125 80.7083 134.375 80.375C135.625 80.0417 136.792 79.625 137.875 79.125C138.958 78.5417 139.583 78.0417 139.75 77.625C140.25 75.7083 140.5 72.4167 140.5 67.75V46.875L140.25 46.375L125.625 46.125C115.292 46.2083 110.125 46.3333 110.125 46.5L110.375 46.75V67.25C110.375 69.4167 110.458 71.375 110.625 73.125C110.792 74.875 111.042 76.4167 111.375 77.75C111.542 78.0833 112.125 78.5 113.125 79C114.208 79.5 115.333 79.9583 116.5 80.375C117.75 80.7083 118.625 80.875 119.125 80.875C119.458 80.875 119.625 81.5 119.625 82.75C119.708 84 119.625 84.9167 119.375 85.5C115.292 85.25 111.833 85.0417 109 84.875C106.25 84.625 103.75 84.5 101.5 84.5C98.75 84.5 95.9583 84.625 93.125 84.875C90.375 85.0417 87.2917 85.25 83.875 85.5Z" fill="white"/>
</svg>
